<?xml version="1.0" encoding="UTF-8"?>
<svg id="Layer_2" data-name="Layer 2" xmlns="http://www.w3.org/2000/svg" viewBox="0 0 241.99 90.84">
  <g id="Layer_1-2" data-name="Layer 1">
    <g>
      <path d="M74.29,90.84l-9.59-43.86c-1.68-7.37-3.25-17.3-3.27-17.4-.12-.78-.79-1.35-1.58-1.35h-.26c-.79,0-1.46.57-1.58,1.35-.02.1-1.59,10.04-3.14,17.41l-9.59,43.84h-20.38L0,0h20.19l9.18,38.23c2.06,8.9,4.29,23.02,4.32,23.16.12.78.79,1.35,1.58,1.35h.26c.77,0,1.42-.54,1.57-1.29.02-.13,2.52-12.98,4.59-22.32L50.23,0h19l8.54,38.86c2.07,9.46,4.44,22.44,4.46,22.57.14.76.8,1.31,1.57,1.31h.26c.77,0,1.43-.55,1.57-1.31.02-.13,2.27-12.24,4.25-21.33l9.29,33.88-4.62,16.86h-20.25Z"/>
      <polygon points="105.68 0 119.44 0 112.1 26.78 105.68 0"/>
      <path d="M156.5,90.84l-9.59-43.86c-1.68-7.37-3.25-17.3-3.27-17.4-.12-.78-.79-1.35-1.58-1.35h-.26c-.79,0-1.46.57-1.58,1.35-.02.1-1.59,10.04-3.14,17.41l-9.59,43.84h-20.38L82.2,0h20.19l9.18,38.23c2.06,8.9,4.29,23.02,4.32,23.16.12.78.79,1.35,1.58,1.35h.26c.77,0,1.42-.54,1.57-1.29.02-.13,2.52-12.98,4.59-22.32L132.43,0h19l8.54,38.86c2.07,9.46,4.44,22.44,4.46,22.57.14.76.8,1.31,1.57,1.31h.26c.77,0,1.43-.55,1.57-1.31.03-.14,2.65-14.28,4.72-23.48L181.59,0h20.05l-10.05,36.65h-10.22c-.88,0-1.6.72-1.6,1.6v21.44c0,.88.72,1.6,1.6,1.6h3.46l-8.1,29.55h-20.25Z"/>
      <path d="M202.58,79.93v-20.23c0-.88-.72-1.6-1.6-1.6h-18v-18.24h18c.88,0,1.6-.72,1.6-1.6v-19.97h19.82v19.97c0,.88.72,1.6,1.6,1.6h18v18.24h-18c-.88,0-1.6.72-1.6,1.6v20.23h-19.82Z"/>
    </g>
  </g>
</svg>